<svg preserveAspectRatio="none" overflow="visible" style="display: block;" width="355.999" height="426.238" viewBox="0 0 355.999 426.238" fill="none" xmlns="http://www.w3.org/2000/svg">
<g id="Container">
<g id="Vector" opacity="0.3">
<path d="M292.929 43.7764C281.881 54.8236 285.399 70.5979 285.399 70.5979C285.399 70.5979 301.173 74.1155 312.22 63.0682C321.706 53.5824 319.75 36.2466 319.75 36.2466C319.75 36.2466 302.414 34.2905 292.929 43.7764Z" fill="white"/>
<path d="M347.935 27.354C358.982 16.3067 355.464 0.532444 355.464 0.532444C355.464 0.532444 339.69 -2.9851 328.643 8.06217C319.157 17.548 321.113 34.8837 321.113 34.8837C321.113 34.8837 338.449 36.8399 347.935 27.354Z" fill="white"/>
<path d="M347.935 43.7764C358.982 54.8236 355.464 70.5979 355.464 70.5979C355.464 70.5979 339.69 74.1155 328.643 63.0682C319.157 53.5824 321.113 36.2466 321.113 36.2466C321.113 36.2466 338.449 34.2905 347.935 43.7764Z" fill="white"/>
<path d="M292.929 27.354C281.881 16.3067 285.399 0.532437 285.399 0.532437C285.399 0.532437 301.173 -2.98511 312.22 8.06217C321.706 17.548 319.75 34.8837 319.75 34.8837C319.75 34.8837 302.414 36.8399 292.929 27.354Z" fill="white"/>
</g>
<g id="Vector_2" opacity="0.3">
<path d="M221.839 43.7764C210.791 54.8236 214.309 70.5979 214.309 70.5979C214.309 70.5979 230.083 74.1155 241.13 63.0682C250.616 53.5824 248.66 36.2466 248.66 36.2466C248.66 36.2466 231.324 34.2905 221.839 43.7764Z" fill="white"/>
<path d="M276.845 27.354C287.892 16.3067 284.374 0.532444 284.374 0.532444C284.374 0.532444 268.6 -2.9851 257.553 8.06217C248.067 17.548 250.023 34.8837 250.023 34.8837C250.023 34.8837 267.359 36.8399 276.845 27.354Z" fill="white"/>
<path d="M276.845 43.7764C287.892 54.8236 284.374 70.5979 284.374 70.5979C284.374 70.5979 268.6 74.1155 257.553 63.0682C248.067 53.5824 250.023 36.2466 250.023 36.2466C250.023 36.2466 267.359 34.2905 276.845 43.7764Z" fill="white"/>
<path d="M221.839 27.354C210.791 16.3067 214.309 0.532437 214.309 0.532437C214.309 0.532437 230.083 -2.98511 241.13 8.06217C250.616 17.548 248.66 34.8837 248.66 34.8837C248.66 34.8837 231.324 36.8399 221.839 27.354Z" fill="white"/>
</g>
<g id="Vector_3" opacity="0.3">
<path d="M150.71 43.7764C139.663 54.8236 143.18 70.5979 143.18 70.5979C143.18 70.5979 158.955 74.1155 170.002 63.0682C179.488 53.5824 177.532 36.2466 177.532 36.2466C177.532 36.2466 160.196 34.2905 150.71 43.7764Z" fill="white"/>
<path d="M205.716 27.354C216.764 16.3067 213.246 0.532444 213.246 0.532444C213.246 0.532444 197.472 -2.9851 186.424 8.06217C176.939 17.548 178.895 34.8837 178.895 34.8837C178.895 34.8837 196.23 36.8399 205.716 27.354Z" fill="white"/>
<path d="M205.716 43.7764C216.764 54.8236 213.246 70.5979 213.246 70.5979C213.246 70.5979 197.472 74.1155 186.424 63.0682C176.939 53.5824 178.895 36.2466 178.895 36.2466C178.895 36.2466 196.23 34.2905 205.716 43.7764Z" fill="white"/>
<path d="M150.71 27.354C139.663 16.3067 143.18 0.532437 143.18 0.532437C143.18 0.532437 158.955 -2.98511 170.002 8.06217C179.488 17.548 177.532 34.8837 177.532 34.8837C177.532 34.8837 160.196 36.8399 150.71 27.354Z" fill="white"/>
</g>
<g id="Vector_4" opacity="0.3">
<path d="M79.2339 43.7764C68.1266 54.8236 71.6633 70.5979 71.6633 70.5979C71.6633 70.5979 87.5233 74.1155 98.6307 63.0682C108.168 53.5824 106.201 36.2466 106.201 36.2466C106.201 36.2466 88.7714 34.2905 79.2339 43.7764Z" fill="white"/>
<path d="M134.539 27.354C145.646 16.3067 142.11 0.532444 142.11 0.532444C142.11 0.532444 126.25 -2.98511 115.142 8.06217C105.605 17.548 107.572 34.8838 107.572 34.8838C107.572 34.8838 125.002 36.8399 134.539 27.354Z" fill="white"/>
<path d="M134.539 43.7764C145.646 54.8236 142.11 70.5979 142.11 70.5979C142.11 70.5979 126.25 74.1155 115.142 63.0682C105.605 53.5824 107.572 36.2466 107.572 36.2466C107.572 36.2466 125.002 34.2905 134.539 43.7764Z" fill="white"/>
<path d="M79.234 27.354C68.1266 16.3067 71.6633 0.532438 71.6633 0.532438C71.6633 0.532438 87.5233 -2.98511 98.6307 8.06217C108.168 17.548 106.201 34.8838 106.201 34.8838C106.201 34.8838 88.7714 36.8399 79.234 27.354Z" fill="white"/>
</g>
<g id="Vector_5" opacity="0.3">
<path d="M8.06219 43.7764C-2.9851 54.8236 0.532449 70.5979 0.532449 70.5979C0.532449 70.5979 16.3068 74.1155 27.354 63.0682C36.8399 53.5824 34.8838 36.2466 34.8838 36.2466C34.8838 36.2466 17.548 34.2905 8.06219 43.7764Z" fill="white"/>
<path d="M63.0682 27.354C74.1155 16.3067 70.5979 0.532444 70.5979 0.532444C70.5979 0.532444 54.8236 -2.9851 43.7763 8.06217C34.2905 17.548 36.2466 34.8837 36.2466 34.8837C36.2466 34.8837 53.5824 36.8399 63.0682 27.354Z" fill="white"/>
<path d="M63.0682 43.7764C74.1155 54.8236 70.5979 70.5979 70.5979 70.5979C70.5979 70.5979 54.8236 74.1155 43.7763 63.0682C34.2905 53.5824 36.2466 36.2466 36.2466 36.2466C36.2466 36.2466 53.5824 34.2905 63.0682 43.7764Z" fill="white"/>
<path d="M8.06219 27.354C-2.98509 16.3067 0.532455 0.532437 0.532455 0.532437C0.532455 0.532437 16.3068 -2.98511 27.3541 8.06217C36.8399 17.548 34.8838 34.8837 34.8838 34.8837C34.8838 34.8837 17.548 36.8399 8.06219 27.354Z" fill="white"/>
</g>
<g id="Vector_6" opacity="0.6">
<path d="M292.929 115.294C281.881 126.341 285.399 142.115 285.399 142.115C285.399 142.115 301.173 145.633 312.22 134.586C321.706 125.1 319.75 107.764 319.75 107.764C319.75 107.764 302.414 105.808 292.929 115.294Z" fill="white"/>
<path d="M347.935 98.8716C358.982 87.8243 355.464 72.05 355.464 72.05C355.464 72.05 339.69 68.5325 328.643 79.5797C319.157 89.0656 321.113 106.401 321.113 106.401C321.113 106.401 338.449 108.357 347.935 98.8716Z" fill="white"/>
<path d="M347.935 115.294C358.982 126.341 355.464 142.115 355.464 142.115C355.464 142.115 339.69 145.633 328.643 134.586C319.157 125.1 321.113 107.764 321.113 107.764C321.113 107.764 338.449 105.808 347.935 115.294Z" fill="white"/>
<path d="M292.929 98.8716C281.881 87.8243 285.399 72.05 285.399 72.05C285.399 72.05 301.173 68.5324 312.22 79.5797C321.706 89.0656 319.75 106.401 319.75 106.401C319.75 106.401 302.414 108.357 292.929 98.8716Z" fill="white"/>
</g>
<g id="Vector_7" opacity="0.6">
<path d="M221.839 115.294C210.791 126.341 214.309 142.116 214.309 142.116C214.309 142.116 230.083 145.633 241.13 134.586C250.616 125.1 248.66 107.764 248.66 107.764C248.66 107.764 231.324 105.808 221.839 115.294Z" fill="white"/>
<path d="M276.845 98.8718C287.892 87.8246 284.374 72.0503 284.374 72.0503C284.374 72.0503 268.6 68.5327 257.553 79.58C248.067 89.0658 250.023 106.402 250.023 106.402C250.023 106.402 267.359 108.358 276.845 98.8718Z" fill="white"/>
<path d="M276.845 115.294C287.892 126.341 284.374 142.116 284.374 142.116C284.374 142.116 268.6 145.633 257.553 134.586C248.067 125.1 250.023 107.764 250.023 107.764C250.023 107.764 267.359 105.808 276.845 115.294Z" fill="white"/>
<path d="M221.839 98.8718C210.791 87.8246 214.309 72.0503 214.309 72.0503C214.309 72.0503 230.083 68.5327 241.13 79.58C250.616 89.0658 248.66 106.402 248.66 106.402C248.66 106.402 231.324 108.358 221.839 98.8718Z" fill="white"/>
</g>
<g id="Vector_8" opacity="0.6">
<path d="M150.71 115.294C139.663 126.341 143.18 142.115 143.18 142.115C143.18 142.115 158.955 145.633 170.002 134.586C179.488 125.1 177.532 107.764 177.532 107.764C177.532 107.764 160.196 105.808 150.71 115.294Z" fill="white"/>
<path d="M205.716 98.8716C216.764 87.8243 213.246 72.05 213.246 72.05C213.246 72.05 197.472 68.5325 186.424 79.5797C176.939 89.0656 178.895 106.401 178.895 106.401C178.895 106.401 196.23 108.357 205.716 98.8716Z" fill="white"/>
<path d="M205.716 115.294C216.764 126.341 213.246 142.115 213.246 142.115C213.246 142.115 197.472 145.633 186.424 134.586C176.939 125.1 178.895 107.764 178.895 107.764C178.895 107.764 196.23 105.808 205.716 115.294Z" fill="white"/>
<path d="M150.71 98.8716C139.663 87.8243 143.18 72.05 143.18 72.05C143.18 72.05 158.955 68.5324 170.002 79.5797C179.488 89.0656 177.532 106.401 177.532 106.401C177.532 106.401 160.196 108.357 150.71 98.8716Z" fill="white"/>
</g>
<g id="Vector_9" opacity="0.6">
<path d="M79.2339 115.294C68.1266 126.341 71.6633 142.115 71.6633 142.115C71.6633 142.115 87.5233 145.633 98.6307 134.586C108.168 125.1 106.201 107.764 106.201 107.764C106.201 107.764 88.7714 105.808 79.2339 115.294Z" fill="white"/>
<path d="M134.539 98.8716C145.646 87.8243 142.11 72.05 142.11 72.05C142.11 72.05 126.25 68.5325 115.142 79.5797C105.605 89.0656 107.572 106.401 107.572 106.401C107.572 106.401 125.002 108.357 134.539 98.8716Z" fill="white"/>
<path d="M134.539 115.294C145.646 126.341 142.11 142.116 142.11 142.116C142.11 142.116 126.25 145.633 115.142 134.586C105.605 125.1 107.572 107.764 107.572 107.764C107.572 107.764 125.002 105.808 134.539 115.294Z" fill="white"/>
<path d="M79.234 98.8716C68.1266 87.8243 71.6633 72.05 71.6633 72.05C71.6633 72.05 87.5233 68.5324 98.6307 79.5797C108.168 89.0656 106.201 106.401 106.201 106.401C106.201 106.401 88.7714 108.357 79.234 98.8716Z" fill="white"/>
</g>
<g id="Vector_10" opacity="0.6">
<path d="M8.06349 115.294C-2.98379 126.342 0.533753 142.116 0.533753 142.116C0.533753 142.116 16.3081 145.633 27.3554 134.586C36.8412 125.1 34.8851 107.765 34.8851 107.765C34.8851 107.765 17.5494 105.809 8.06349 115.294Z" fill="white"/>
<path d="M63.0695 98.872C74.1168 87.8248 70.5993 72.0505 70.5993 72.0505C70.5993 72.0505 54.8249 68.5329 43.7777 79.5802C34.2918 89.066 36.2479 106.402 36.2479 106.402C36.2479 106.402 53.5837 108.358 63.0695 98.872Z" fill="white"/>
<path d="M63.0695 115.294C74.1168 126.342 70.5992 142.116 70.5992 142.116C70.5992 142.116 54.8249 145.633 43.7776 134.586C34.2918 125.1 36.2479 107.765 36.2479 107.765C36.2479 107.765 53.5837 105.809 63.0695 115.294Z" fill="white"/>
<path d="M8.06349 98.872C-2.98379 87.8248 0.53376 72.0505 0.53376 72.0505C0.53376 72.0505 16.3081 68.5329 27.3554 79.5802C36.8412 89.066 34.8851 106.402 34.8851 106.402C34.8851 106.402 17.5494 108.358 8.06349 98.872Z" fill="white"/>
</g>
<g id="Vector_11" opacity="0.879023">
<path d="M292.927 186.807C281.879 197.854 285.397 213.628 285.397 213.628C285.397 213.628 301.171 217.146 312.219 206.099C321.704 196.613 319.748 179.277 319.748 179.277C319.748 179.277 302.413 177.321 292.927 186.807Z" fill="white"/>
<path d="M347.933 170.385C358.98 159.337 355.463 143.563 355.463 143.563C355.463 143.563 339.688 140.045 328.641 151.093C319.155 160.579 321.111 177.914 321.111 177.914C321.111 177.914 338.447 179.87 347.933 170.385Z" fill="white"/>
<path d="M347.933 186.807C358.98 197.854 355.463 213.628 355.463 213.628C355.463 213.628 339.688 217.146 328.641 206.099C319.155 196.613 321.111 179.277 321.111 179.277C321.111 179.277 338.447 177.321 347.933 186.807Z" fill="white"/>
<path d="M292.927 170.385C281.879 159.337 285.397 143.563 285.397 143.563C285.397 143.563 301.171 140.045 312.219 151.093C321.704 160.579 319.748 177.914 319.748 177.914C319.748 177.914 302.413 179.87 292.927 170.385Z" fill="white"/>
</g>
<g id="Vector_12" opacity="0.6">
<path d="M292.929 257.782C281.881 268.829 285.399 284.603 285.399 284.603C285.399 284.603 301.173 288.121 312.22 277.074C321.706 267.588 319.75 250.252 319.75 250.252C319.75 250.252 302.414 248.296 292.929 257.782Z" fill="white"/>
<path d="M347.935 241.359C358.982 230.312 355.464 214.538 355.464 214.538C355.464 214.538 339.69 211.02 328.643 222.068C319.157 231.553 321.113 248.889 321.113 248.889C321.113 248.889 338.449 250.845 347.935 241.359Z" fill="white"/>
<path d="M347.935 257.782C358.982 268.829 355.464 284.603 355.464 284.603C355.464 284.603 339.69 288.121 328.643 277.074C319.157 267.588 321.113 250.252 321.113 250.252C321.113 250.252 338.449 248.296 347.935 257.782Z" fill="white"/>
<path d="M292.929 241.359C281.881 230.312 285.399 214.538 285.399 214.538C285.399 214.538 301.173 211.02 312.22 222.068C321.706 231.553 319.75 248.889 319.75 248.889C319.75 248.889 302.414 250.845 292.929 241.359Z" fill="white"/>
</g>
<g id="Vector_13" opacity="0.03">
<path d="M292.93 328.477C281.883 339.524 285.401 355.298 285.401 355.298C285.401 355.298 301.175 358.816 312.222 347.769C321.708 338.283 319.752 320.947 319.752 320.947C319.752 320.947 302.416 318.991 292.93 328.477Z" fill="white"/>
<path d="M347.936 312.054C358.984 301.007 355.466 285.233 355.466 285.233C355.466 285.233 339.692 281.715 328.645 292.763C319.159 302.248 321.115 319.584 321.115 319.584C321.115 319.584 338.451 321.54 347.936 312.054Z" fill="white"/>
<path d="M347.936 328.477C358.984 339.524 355.466 355.298 355.466 355.298C355.466 355.298 339.692 358.816 328.645 347.769C319.159 338.283 321.115 320.947 321.115 320.947C321.115 320.947 338.451 318.991 347.936 328.477Z" fill="white"/>
<path d="M292.93 312.054C281.883 301.007 285.401 285.233 285.401 285.233C285.401 285.233 301.175 281.715 312.222 292.763C321.708 302.248 319.752 319.584 319.752 319.584C319.752 319.584 302.416 321.54 292.93 312.054Z" fill="white"/>
</g>
<g id="Vector_14" opacity="0.03">
<path d="M292.931 398.884C281.884 409.931 285.401 425.706 285.401 425.706C285.401 425.706 301.176 429.223 312.223 418.176C321.709 408.69 319.753 391.354 319.753 391.354C319.753 391.354 302.417 389.398 292.931 398.884Z" fill="#BAC0CD" fill-opacity="0.01"/>
<path d="M347.937 382.462C358.984 371.414 355.467 355.64 355.467 355.64C355.467 355.64 339.693 352.123 328.645 363.17C319.159 372.656 321.115 389.991 321.115 389.991C321.115 389.991 338.451 391.948 347.937 382.462Z" fill="#BAC0CD" fill-opacity="0.01"/>
<path d="M347.937 398.884C358.984 409.931 355.467 425.706 355.467 425.706C355.467 425.706 339.693 429.223 328.645 418.176C319.159 408.69 321.115 391.354 321.115 391.354C321.115 391.354 338.451 389.398 347.937 398.884Z" fill="#BAC0CD" fill-opacity="0.01"/>
<path d="M292.931 382.462C281.884 371.414 285.401 355.64 285.401 355.64C285.401 355.64 301.176 352.123 312.223 363.17C321.709 372.656 319.753 389.991 319.753 389.991C319.753 389.991 302.417 391.948 292.931 382.462Z" fill="#BAC0CD" fill-opacity="0.01"/>
</g>
<g id="Vector_15" opacity="0.879023">
<path d="M221.839 186.807C210.791 197.854 214.309 213.629 214.309 213.629C214.309 213.629 230.083 217.146 241.13 206.099C250.616 196.613 248.66 179.277 248.66 179.277C248.66 179.277 231.324 177.321 221.839 186.807Z" fill="white"/>
<path d="M276.845 170.385C287.892 159.338 284.374 143.563 284.374 143.563C284.374 143.563 268.6 140.046 257.553 151.093C248.067 160.579 250.023 177.915 250.023 177.915C250.023 177.915 267.359 179.871 276.845 170.385Z" fill="white"/>
<path d="M276.845 186.807C287.892 197.854 284.374 213.629 284.374 213.629C284.374 213.629 268.6 217.146 257.553 206.099C248.067 196.613 250.023 179.277 250.023 179.277C250.023 179.277 267.359 177.321 276.845 186.807Z" fill="white"/>
<path d="M221.839 170.385C210.791 159.338 214.309 143.563 214.309 143.563C214.309 143.563 230.083 140.046 241.13 151.093C250.616 160.579 248.66 177.915 248.66 177.915C248.66 177.915 231.324 179.871 221.839 170.385Z" fill="white"/>
</g>
<g id="Vector_16" opacity="0.6">
<path d="M221.839 257.782C210.791 268.829 214.309 284.603 214.309 284.603C214.309 284.603 230.083 288.121 241.13 277.073C250.616 267.588 248.66 250.252 248.66 250.252C248.66 250.252 231.324 248.296 221.839 257.782Z" fill="white"/>
<path d="M276.845 241.359C287.892 230.312 284.374 214.538 284.374 214.538C284.374 214.538 268.6 211.02 257.553 222.067C248.067 231.553 250.023 248.889 250.023 248.889C250.023 248.889 267.359 250.845 276.845 241.359Z" fill="white"/>
<path d="M276.845 257.782C287.892 268.829 284.374 284.603 284.374 284.603C284.374 284.603 268.6 288.121 257.553 277.073C248.067 267.588 250.023 250.252 250.023 250.252C250.023 250.252 267.359 248.296 276.845 257.782Z" fill="white"/>
<path d="M221.839 241.359C210.791 230.312 214.309 214.538 214.309 214.538C214.309 214.538 230.083 211.02 241.13 222.067C250.616 231.553 248.66 248.889 248.66 248.889C248.66 248.889 231.324 250.845 221.839 241.359Z" fill="white"/>
</g>
<g id="Vector_17" opacity="0.03">
<path d="M221.84 328.476C210.793 339.524 214.311 355.298 214.311 355.298C214.311 355.298 230.085 358.816 241.132 347.768C250.618 338.282 248.662 320.947 248.662 320.947C248.662 320.947 231.326 318.991 221.84 328.476Z" fill="white"/>
<path d="M276.846 312.054C287.894 301.007 284.376 285.233 284.376 285.233C284.376 285.233 268.602 281.715 257.555 292.762C248.069 302.248 250.025 319.584 250.025 319.584C250.025 319.584 267.361 321.54 276.846 312.054Z" fill="white"/>
<path d="M276.846 328.476C287.894 339.524 284.376 355.298 284.376 355.298C284.376 355.298 268.602 358.816 257.554 347.768C248.069 338.282 250.025 320.947 250.025 320.947C250.025 320.947 267.361 318.991 276.846 328.476Z" fill="white"/>
<path d="M221.84 312.054C210.793 301.007 214.311 285.233 214.311 285.233C214.311 285.233 230.085 281.715 241.132 292.762C250.618 302.248 248.662 319.584 248.662 319.584C248.662 319.584 231.326 321.54 221.84 312.054Z" fill="white"/>
</g>
<g id="Vector_18" opacity="0.03">
<path d="M221.84 398.884C210.793 409.931 214.311 425.705 214.311 425.705C214.311 425.705 230.085 429.223 241.132 418.176C250.618 408.69 248.662 391.354 248.662 391.354C248.662 391.354 231.326 389.398 221.84 398.884Z" fill="#BAC0CD" fill-opacity="0.01"/>
<path d="M276.846 382.462C287.894 371.414 284.376 355.64 284.376 355.64C284.376 355.64 268.602 352.122 257.555 363.17C248.069 372.656 250.025 389.991 250.025 389.991C250.025 389.991 267.361 391.947 276.846 382.462Z" fill="#BAC0CD" fill-opacity="0.01"/>
<path d="M276.846 398.884C287.894 409.931 284.376 425.705 284.376 425.705C284.376 425.705 268.602 429.223 257.554 418.176C248.069 408.69 250.025 391.354 250.025 391.354C250.025 391.354 267.361 389.398 276.846 398.884Z" fill="#BAC0CD" fill-opacity="0.01"/>
<path d="M221.84 382.462C210.793 371.414 214.311 355.64 214.311 355.64C214.311 355.64 230.085 352.122 241.132 363.17C250.618 372.656 248.662 389.991 248.662 389.991C248.662 389.991 231.326 391.947 221.84 382.462Z" fill="#BAC0CD" fill-opacity="0.01"/>
</g>
<g id="Vector_19" opacity="0.879023">
<path d="M150.71 186.807C139.663 197.854 143.18 213.629 143.18 213.629C143.18 213.629 158.955 217.146 170.002 206.099C179.488 196.613 177.532 179.277 177.532 179.277C177.532 179.277 160.196 177.321 150.71 186.807Z" fill="white"/>
<path d="M205.716 170.385C216.764 159.338 213.246 143.563 213.246 143.563C213.246 143.563 197.472 140.046 186.424 151.093C176.939 160.579 178.895 177.915 178.895 177.915C178.895 177.915 196.23 179.871 205.716 170.385Z" fill="white"/>
<path d="M205.716 186.807C216.764 197.854 213.246 213.629 213.246 213.629C213.246 213.629 197.472 217.146 186.424 206.099C176.939 196.613 178.895 179.277 178.895 179.277C178.895 179.277 196.23 177.321 205.716 186.807Z" fill="white"/>
<path d="M150.71 170.385C139.663 159.338 143.18 143.563 143.18 143.563C143.18 143.563 158.955 140.046 170.002 151.093C179.488 160.579 177.532 177.915 177.532 177.915C177.532 177.915 160.196 179.871 150.71 170.385Z" fill="white"/>
</g>
<g id="Vector_20" opacity="0.6">
<path d="M150.71 257.782C139.663 268.829 143.18 284.603 143.18 284.603C143.18 284.603 158.955 288.121 170.002 277.073C179.488 267.588 177.532 250.252 177.532 250.252C177.532 250.252 160.196 248.296 150.71 257.782Z" fill="white"/>
<path d="M205.716 241.359C216.764 230.312 213.246 214.538 213.246 214.538C213.246 214.538 197.472 211.02 186.424 222.067C176.939 231.553 178.895 248.889 178.895 248.889C178.895 248.889 196.23 250.845 205.716 241.359Z" fill="white"/>
<path d="M205.716 257.782C216.764 268.829 213.246 284.603 213.246 284.603C213.246 284.603 197.472 288.121 186.424 277.073C176.939 267.588 178.895 250.252 178.895 250.252C178.895 250.252 196.23 248.296 205.716 257.782Z" fill="white"/>
<path d="M150.71 241.359C139.663 230.312 143.18 214.538 143.18 214.538C143.18 214.538 158.955 211.02 170.002 222.067C179.488 231.553 177.532 248.889 177.532 248.889C177.532 248.889 160.196 250.845 150.71 241.359Z" fill="white"/>
</g>
<g id="Vector_21" opacity="0.03">
<path d="M150.712 328.476C139.665 339.524 143.182 355.298 143.182 355.298C143.182 355.298 158.957 358.816 170.004 347.768C179.49 338.282 177.534 320.947 177.534 320.947C177.534 320.947 160.198 318.991 150.712 328.476Z" fill="white"/>
<path d="M205.718 312.054C216.765 301.007 213.248 285.233 213.248 285.233C213.248 285.233 197.473 281.715 186.426 292.762C176.94 302.248 178.896 319.584 178.896 319.584C178.896 319.584 196.232 321.54 205.718 312.054Z" fill="white"/>
<path d="M205.718 328.476C216.765 339.524 213.248 355.298 213.248 355.298C213.248 355.298 197.473 358.816 186.426 347.768C176.94 338.282 178.896 320.947 178.896 320.947C178.896 320.947 196.232 318.991 205.718 328.476Z" fill="white"/>
<path d="M150.712 312.054C139.665 301.007 143.182 285.233 143.182 285.233C143.182 285.233 158.957 281.715 170.004 292.762C179.49 302.248 177.534 319.584 177.534 319.584C177.534 319.584 160.198 321.54 150.712 312.054Z" fill="white"/>
</g>
<g id="Vector_22" opacity="0.03">
<path d="M150.712 398.884C139.665 409.931 143.182 425.705 143.182 425.705C143.182 425.705 158.957 429.223 170.004 418.176C179.49 408.69 177.534 391.354 177.534 391.354C177.534 391.354 160.198 389.398 150.712 398.884Z" fill="#BAC0CD" fill-opacity="0.01"/>
<path d="M205.718 382.462C216.765 371.414 213.248 355.64 213.248 355.64C213.248 355.64 197.473 352.122 186.426 363.17C176.94 372.656 178.896 389.991 178.896 389.991C178.896 389.991 196.232 391.947 205.718 382.462Z" fill="#BAC0CD" fill-opacity="0.01"/>
<path d="M205.718 398.884C216.765 409.931 213.248 425.705 213.248 425.705C213.248 425.705 197.473 429.223 186.426 418.176C176.94 408.69 178.896 391.354 178.896 391.354C178.896 391.354 196.232 389.398 205.718 398.884Z" fill="#BAC0CD" fill-opacity="0.01"/>
<path d="M150.712 382.462C139.665 371.414 143.182 355.64 143.182 355.64C143.182 355.64 158.957 352.122 170.004 363.17C179.49 372.656 177.534 389.991 177.534 389.991C177.534 389.991 160.198 391.947 150.712 382.462Z" fill="#BAC0CD" fill-opacity="0.01"/>
</g>
<g id="Vector_23" opacity="0.879023">
<path d="M79.2339 186.807C68.1266 197.854 71.6633 213.628 71.6633 213.628C71.6633 213.628 87.5233 217.146 98.6307 206.099C108.168 196.613 106.201 179.277 106.201 179.277C106.201 179.277 88.7714 177.321 79.2339 186.807Z" fill="white"/>
<path d="M134.539 170.385C145.646 159.337 142.11 143.563 142.11 143.563C142.11 143.563 126.25 140.045 115.142 151.093C105.605 160.579 107.572 177.914 107.572 177.914C107.572 177.914 125.002 179.87 134.539 170.385Z" fill="white"/>
<path d="M134.539 186.807C145.646 197.854 142.11 213.628 142.11 213.628C142.11 213.628 126.25 217.146 115.142 206.099C105.605 196.613 107.572 179.277 107.572 179.277C107.572 179.277 125.002 177.321 134.539 186.807Z" fill="white"/>
<path d="M79.234 170.385C68.1266 159.337 71.6633 143.563 71.6633 143.563C71.6633 143.563 87.5233 140.045 98.6307 151.093C108.168 160.579 106.201 177.914 106.201 177.914C106.201 177.914 88.7714 179.87 79.234 170.385Z" fill="white"/>
</g>
<g id="Vector_24" opacity="0.6">
<path d="M79.2339 257.781C68.1266 268.828 71.6633 284.603 71.6633 284.603C71.6633 284.603 87.5233 288.12 98.6307 277.073C108.168 267.587 106.201 250.251 106.201 250.251C106.201 250.251 88.7714 248.295 79.2339 257.781Z" fill="white"/>
<path d="M134.539 241.359C145.646 230.311 142.11 214.537 142.11 214.537C142.11 214.537 126.25 211.02 115.142 222.067C105.605 231.553 107.572 248.888 107.572 248.888C107.572 248.888 125.002 250.845 134.539 241.359Z" fill="white"/>
<path d="M134.539 257.781C145.646 268.828 142.11 284.603 142.11 284.603C142.11 284.603 126.25 288.12 115.142 277.073C105.605 267.587 107.572 250.251 107.572 250.251C107.572 250.251 125.002 248.295 134.539 257.781Z" fill="white"/>
<path d="M79.234 241.359C68.1266 230.311 71.6633 214.537 71.6633 214.537C71.6633 214.537 87.5233 211.02 98.6307 222.067C108.168 231.553 106.201 248.888 106.201 248.888C106.201 248.888 88.7714 250.845 79.234 241.359Z" fill="white"/>
</g>
<g id="Vector_25" opacity="0.03">
<path d="M79.2358 328.476C68.1284 339.523 71.6651 355.298 71.6651 355.298C71.6651 355.298 87.5251 358.815 98.6325 347.768C108.17 338.282 106.203 320.946 106.203 320.946C106.203 320.946 88.7732 318.99 79.2358 328.476Z" fill="white"/>
<path d="M134.541 312.054C145.648 301.006 142.111 285.232 142.111 285.232C142.111 285.232 126.251 281.714 115.144 292.762C105.607 302.248 107.573 319.583 107.573 319.583C107.573 319.583 125.003 321.539 134.541 312.054Z" fill="white"/>
<path d="M134.541 328.476C145.648 339.523 142.111 355.298 142.111 355.298C142.111 355.298 126.251 358.815 115.144 347.768C105.607 338.282 107.573 320.946 107.573 320.946C107.573 320.946 125.003 318.99 134.541 328.476Z" fill="white"/>
<path d="M79.2358 312.054C68.1284 301.006 71.6651 285.232 71.6651 285.232C71.6651 285.232 87.5252 281.714 98.6325 292.762C108.17 302.248 106.203 319.583 106.203 319.583C106.203 319.583 88.7732 321.539 79.2358 312.054Z" fill="white"/>
</g>
<g id="Vector_26" opacity="0.03">
<path d="M79.2358 398.883C68.1284 409.931 71.6651 425.705 71.6651 425.705C71.6651 425.705 87.5251 429.222 98.6325 418.175C108.17 408.689 106.203 391.354 106.203 391.354C106.203 391.354 88.7732 389.397 79.2358 398.883Z" fill="#BAC0CD" fill-opacity="0.01"/>
<path d="M134.541 382.461C145.648 371.414 142.111 355.639 142.111 355.639C142.111 355.639 126.251 352.122 115.144 363.169C105.607 372.655 107.573 389.991 107.573 389.991C107.573 389.991 125.003 391.947 134.541 382.461Z" fill="#BAC0CD" fill-opacity="0.01"/>
<path d="M134.541 398.883C145.648 409.931 142.111 425.705 142.111 425.705C142.111 425.705 126.251 429.222 115.144 418.175C105.607 408.689 107.573 391.354 107.573 391.354C107.573 391.354 125.003 389.397 134.541 398.883Z" fill="#BAC0CD" fill-opacity="0.01"/>
<path d="M79.2358 382.461C68.1284 371.414 71.6651 355.639 71.6651 355.639C71.6651 355.639 87.5252 352.122 98.6325 363.169C108.17 372.655 106.203 389.991 106.203 389.991C106.203 389.991 88.7732 391.947 79.2358 382.461Z" fill="#BAC0CD" fill-opacity="0.01"/>
</g>
<g id="Vector_27" opacity="0.879022">
<path d="M8.06349 186.808C-2.98379 197.855 0.533753 213.629 0.533753 213.629C0.533753 213.629 16.3081 217.147 27.3554 206.1C36.8412 196.614 34.8851 179.278 34.8851 179.278C34.8851 179.278 17.5494 177.322 8.06349 186.808Z" fill="white"/>
<path d="M63.0695 170.385C74.1168 159.338 70.5993 143.564 70.5993 143.564C70.5993 143.564 54.8249 140.046 43.7777 151.093C34.2918 160.579 36.2479 177.915 36.2479 177.915C36.2479 177.915 53.5837 179.871 63.0695 170.385Z" fill="white"/>
<path d="M63.0695 186.808C74.1168 197.855 70.5992 213.629 70.5992 213.629C70.5992 213.629 54.8249 217.147 43.7776 206.1C34.2918 196.614 36.2479 179.278 36.2479 179.278C36.2479 179.278 53.5837 177.322 63.0695 186.808Z" fill="white"/>
<path d="M8.06349 170.385C-2.98379 159.338 0.53376 143.564 0.53376 143.564C0.53376 143.564 16.3081 140.046 27.3554 151.093C36.8412 160.579 34.8851 177.915 34.8851 177.915C34.8851 177.915 17.5494 179.871 8.06349 170.385Z" fill="white"/>
</g>
<g id="Vector_28" opacity="0.6">
<path d="M8.06349 257.782C-2.98379 268.829 0.533753 284.603 0.533753 284.603C0.533753 284.603 16.3081 288.121 27.3554 277.074C36.8412 267.588 34.8851 250.252 34.8851 250.252C34.8851 250.252 17.5494 248.296 8.06349 257.782Z" fill="white"/>
<path d="M63.0695 241.359C74.1168 230.312 70.5993 214.538 70.5993 214.538C70.5993 214.538 54.8249 211.02 43.7777 222.068C34.2918 231.553 36.2479 248.889 36.2479 248.889C36.2479 248.889 53.5837 250.845 63.0695 241.359Z" fill="white"/>
<path d="M63.0695 257.782C74.1168 268.829 70.5992 284.603 70.5992 284.603C70.5992 284.603 54.8249 288.121 43.7776 277.074C34.2918 267.588 36.2479 250.252 36.2479 250.252C36.2479 250.252 53.5837 248.296 63.0695 257.782Z" fill="white"/>
<path d="M8.06349 241.359C-2.98379 230.312 0.53376 214.538 0.53376 214.538C0.53376 214.538 16.3081 211.02 27.3554 222.068C36.8412 231.553 34.8851 248.889 34.8851 248.889C34.8851 248.889 17.5494 250.845 8.06349 241.359Z" fill="white"/>
</g>
<g id="Vector_29" opacity="0.03">
<path d="M8.06531 328.477C-2.98198 339.524 0.535569 355.298 0.535569 355.298C0.535569 355.298 16.3099 358.816 27.3572 347.769C36.843 338.283 34.8869 320.947 34.8869 320.947C34.8869 320.947 17.5512 318.991 8.06531 328.477Z" fill="white"/>
<path d="M63.0713 312.054C74.1186 301.007 70.6011 285.233 70.6011 285.233C70.6011 285.233 54.8268 281.715 43.7795 292.763C34.2936 302.248 36.2497 319.584 36.2497 319.584C36.2497 319.584 53.5855 321.54 63.0713 312.054Z" fill="white"/>
<path d="M63.0713 328.477C74.1186 339.524 70.6011 355.298 70.6011 355.298C70.6011 355.298 54.8267 358.816 43.7795 347.769C34.2936 338.283 36.2497 320.947 36.2497 320.947C36.2497 320.947 53.5855 318.991 63.0713 328.477Z" fill="white"/>
<path d="M8.06531 312.054C-2.98197 301.007 0.535575 285.233 0.535575 285.233C0.535575 285.233 16.3099 281.715 27.3572 292.763C36.843 302.248 34.8869 319.584 34.8869 319.584C34.8869 319.584 17.5512 321.54 8.06531 312.054Z" fill="white"/>
</g>
<g id="Vector_30" opacity="0.03">
<path d="M8.06531 398.884C-2.98198 409.931 0.535569 425.706 0.535569 425.706C0.535569 425.706 16.3099 429.223 27.3572 418.176C36.843 408.69 34.8869 391.354 34.8869 391.354C34.8869 391.354 17.5512 389.398 8.06531 398.884Z" fill="#BAC0CD" fill-opacity="0.01"/>
<path d="M63.0713 382.462C74.1186 371.414 70.6011 355.64 70.6011 355.64C70.6011 355.64 54.8268 352.123 43.7795 363.17C34.2936 372.656 36.2497 389.991 36.2497 389.991C36.2497 389.991 53.5855 391.948 63.0713 382.462Z" fill="#BAC0CD" fill-opacity="0.01"/>
<path d="M63.0713 398.884C74.1186 409.931 70.6011 425.706 70.6011 425.706C70.6011 425.706 54.8267 429.223 43.7795 418.176C34.2936 408.69 36.2497 391.354 36.2497 391.354C36.2497 391.354 53.5855 389.398 63.0713 398.884Z" fill="#BAC0CD" fill-opacity="0.01"/>
<path d="M8.06531 382.462C-2.98197 371.414 0.535575 355.64 0.535575 355.64C0.535575 355.64 16.3099 352.123 27.3572 363.17C36.843 372.656 34.8869 389.991 34.8869 389.991C34.8869 389.991 17.5512 391.947 8.06531 382.462Z" fill="#BAC0CD" fill-opacity="0.01"/>
</g>
</g>
</svg>
